{
    "asset" : {
        "generator" : "Khronos glTF Blender I/O v1.8.19",
        "version" : "2.0"
    },
    "scene" : 0,
    "scenes" : [
        {
            "name" : "Scene",
            "nodes" : [
                6
            ]
        }
    ],
    "nodes" : [
        {
            "mesh" : 0,
            "name" : "LightPlate__0",
            "scale" : [
                0.14332038164138794,
                0.14332038164138794,
                0.14332038164138794
            ],
            "translation" : [
                -0.010996833443641663,
                -0.077680304646492,
                0
            ]
        },
        {
            "children" : [
                0
            ],
            "name" : "LightPlate",
            "rotation" : [
                -0.7071068286895752,
                0,
                0,
                0.7071067094802856
            ],
            "scale" : [
                100,
                100,
                100
            ],
            "translation" : [
                -87.48660278320312,
                0,
                9.075560569763184
            ]
        },
        {
            "mesh" : 1,
            "name" : "Switch_Left__0"
        },
        {
            "children" : [
                2
            ],
            "name" : "Switch_Left",
            "rotation" : [
                -0.721543550491333,
                0,
                0,
                0.6923691034317017
            ],
            "scale" : [
                7.3466477394104,
                2.0261917114257812,
                17.003198623657227
            ],
            "translation" : [
                -88.95423126220703,
                0,
                19.44273567199707
            ]
        },
        {
            "children" : [
                1,
                3
            ],
            "name" : "RootNode"
        },
        {
            "children" : [
                4
            ],
            "name" : "d919e60760e4431e9fe145ce2430224d.fbx",
            "rotation" : [
                0.7071068286895752,
                0,
                0,
                0.7071068286895752
            ]
        },
        {
            "children" : [
                5
            ],
            "name" : "Sketchfab_model",
            "rotation" : [
                -0.7071068286895752,
                0,
                0,
                0.7071068286895752
            ],
            "scale" : [
                0.5572345852851868,
                0.5572345852851868,
                0.5572345852851868
            ],
            "translation" : [
                83.8020248413086,
                1.6031312942504883,
                0.873773455619812
            ]
        }
    ],
    "materials" : [
        {
            "doubleSided" : true,
            "name" : "Scene_-_Root",
            "normalTexture" : {
                "index" : 0
            },
            "occlusionTexture" : {
                "index" : 1
            },
            "pbrMetallicRoughness" : {
                "baseColorTexture" : {
                    "index" : 2
                },
                "metallicRoughnessTexture" : {
                    "index" : 1
                }
            }
        }
    ],
    "meshes" : [
        {
            "name" : "LightPlate__0",
            "primitives" : [
                {
                    "attributes" : {
                        "POSITION" : 0,
                        "NORMAL" : 1,
                        "TEXCOORD_0" : 2
                    },
                    "indices" : 3,
                    "material" : 0
                }
            ]
        },
        {
            "name" : "Switch_Left__0",
            "primitives" : [
                {
                    "attributes" : {
                        "POSITION" : 4,
                        "NORMAL" : 5,
                        "TEXCOORD_0" : 6
                    },
                    "indices" : 7,
                    "material" : 0
                }
            ]
        }
    ],
    "textures" : [
        {
            "sampler" : 0,
            "source" : 0
        },
        {
            "sampler" : 0,
            "source" : 1
        },
        {
            "sampler" : 0,
            "source" : 2
        }
    ],
    "images" : [
        {
            "bufferView" : 4,
            "mimeType" : "image/png",
            "name" : "Scene_-_Root_normal"
        },
        {
            "bufferView" : 5,
            "mimeType" : "image/png",
            "name" : "Scene_-_Root_metallicRoughness"
        },
        {
            "bufferView" : 6,
            "mimeType" : "image/png",
            "name" : "Scene_-_Root_baseColor"
        }
    ],
    "accessors" : [
        {
            "bufferView" : 0,
            "componentType" : 5126,
            "count" : 60,
            "max" : [
                1.4045915603637695,
                0.09075548499822617,
                2.2794575691223145
            ],
            "min" : [
                -1.4045915603637695,
                -0.09075548499822617,
                -2.2794575691223145
            ],
            "type" : "VEC3"
        },
        {
            "bufferView" : 1,
            "componentType" : 5126,
            "count" : 60,
            "type" : "VEC3"
        },
        {
            "bufferView" : 2,
            "componentType" : 5126,
            "count" : 60,
            "type" : "VEC2"
        },
        {
            "bufferView" : 3,
            "componentType" : 5123,
            "count" : 180,
            "type" : "SCALAR"
        },
        {
            "bufferView" : 7,
            "componentType" : 5126,
            "count" : 32,
            "max" : [
                1,
                1.2018213272094727,
                1.0018736124038696
            ],
            "min" : [
                -1,
                0.020963281393051147,
                -1
            ],
            "type" : "VEC3"
        },
        {
            "bufferView" : 8,
            "componentType" : 5126,
            "count" : 32,
            "type" : "VEC3"
        },
        {
            "bufferView" : 9,
            "componentType" : 5126,
            "count" : 32,
            "type" : "VEC2"
        },
        {
            "bufferView" : 10,
            "componentType" : 5123,
            "count" : 60,
            "type" : "SCALAR"
        }
    ],
    "bufferViews" : [
        {
            "buffer" : 0,
            "byteLength" : 720,
            "byteOffset" : 0
        },
        {
            "buffer" : 0,
            "byteLength" : 720,
            "byteOffset" : 720
        },
        {
            "buffer" : 0,
            "byteLength" : 480,
            "byteOffset" : 1440
        },
        {
            "buffer" : 0,
            "byteLength" : 360,
            "byteOffset" : 1920
        },
        {
            "buffer" : 0,
            "byteLength" : 751987,
            "byteOffset" : 2280
        },
        {
            "buffer" : 0,
            "byteLength" : 1418619,
            "byteOffset" : 754268
        },
        {
            "buffer" : 0,
            "byteLength" : 21701,
            "byteOffset" : 2172888
        },
        {
            "buffer" : 0,
            "byteLength" : 384,
            "byteOffset" : 2194592
        },
        {
            "buffer" : 0,
            "byteLength" : 384,
            "byteOffset" : 2194976
        },
        {
            "buffer" : 0,
            "byteLength" : 256,
            "byteOffset" : 2195360
        },
        {
            "buffer" : 0,
            "byteLength" : 120,
            "byteOffset" : 2195616
        }
    ],
    "samplers" : [
        {
            "magFilter" : 9729,
            "minFilter" : 9987
        }
    ],
    "buffers" : [
        {
            "byteLength" : 2195736,
            "uri" : "data:application/octet-stream;base64,"
        }
    ]
}
