{
    "asset" : {
        "generator" : "Khronos glTF Blender I/O v1.8.19",
        "version" : "2.0"
    },
    "scene" : 0,
    "scenes" : [
        {
            "name" : "Scene",
            "nodes" : [
                5
            ]
        }
    ],
    "nodes" : [
        {
            "mesh" : 0,
            "name" : "Object_2"
        },
        {
            "mesh" : 1,
            "name" : "Object_3"
        },
        {
            "mesh" : 2,
            "name" : "Object_4"
        },
        {
            "mesh" : 3,
            "name" : "Object_5"
        },
        {
            "children" : [
                0,
                1,
                2,
                3
            ],
            "name" : "LIGHT BULB.obj.cleaner.materialmerger.gles"
        },
        {
            "children" : [
                4
            ],
            "name" : "Sketchfab_model",
            "rotation" : [
                -0.7071068286895752,
                0,
                0,
                0.7071068286895752
            ],
            "scale" : [
                14.428438186645508,
                14.428438186645508,
                14.428438186645508
            ]
        }
    ],
    "materials" : [
        {
            "doubleSided" : true,
            "name" : "METAL_2",
            "pbrMetallicRoughness" : {
                "baseColorFactor" : [
                    0.800000011920929,
                    0.7702550292015076,
                    0.7470899820327759,
                    1
                ],
                "roughnessFactor" : 0.11699999868869781
            }
        },
        {
            "alphaMode" : "BLEND",
            "doubleSided" : true,
            "name" : "GLASS",
            "pbrMetallicRoughness" : {
                "baseColorFactor" : [
                    0.800000011920929,
                    0.800000011920929,
                    0.800000011920929,
                    0.25
                ],
                "metallicFactor" : 0,
                "roughnessFactor" : 0
            }
        },
        {
            "doubleSided" : true,
            "name" : "METAL.001",
            "pbrMetallicRoughness" : {
                "baseColorFactor" : [
                    0.800000011920929,
                    0.800000011920929,
                    0.800000011920929,
                    1
                ],
                "roughnessFactor" : 0.11723333597183228
            }
        }
    ],
    "meshes" : [
        {
            "name" : "Object_0",
            "primitives" : [
                {
                    "attributes" : {
                        "POSITION" : 0,
                        "NORMAL" : 1,
                        "TEXCOORD_0" : 2
                    },
                    "indices" : 3,
                    "material" : 0
                }
            ]
        },
        {
            "name" : "Object_1",
            "primitives" : [
                {
                    "attributes" : {
                        "POSITION" : 4,
                        "NORMAL" : 5,
                        "TEXCOORD_0" : 6
                    },
                    "indices" : 7,
                    "material" : 1
                }
            ]
        },
        {
            "name" : "Object_2",
            "primitives" : [
                {
                    "attributes" : {
                        "POSITION" : 8,
                        "NORMAL" : 9,
                        "TEXCOORD_0" : 10
                    },
                    "indices" : 11,
                    "material" : 2
                }
            ]
        },
        {
            "name" : "Object_3",
            "primitives" : [
                {
                    "attributes" : {
                        "POSITION" : 12,
                        "NORMAL" : 13,
                        "TEXCOORD_0" : 14
                    },
                    "indices" : 15,
                    "material" : 2
                }
            ]
        }
    ],
    "accessors" : [
        {
            "bufferView" : 0,
            "componentType" : 5126,
            "count" : 210,
            "max" : [
                -0.04330800101161003,
                0.34285399317741394,
                -0.14876100420951843
            ],
            "min" : [
                -0.7220140099525452,
                -0.3358519971370697,
                -0.41131600737571716
            ],
            "type" : "VEC3"
        },
        {
            "bufferView" : 1,
            "componentType" : 5126,
            "count" : 210,
            "type" : "VEC3"
        },
        {
            "bufferView" : 2,
            "componentType" : 5126,
            "count" : 210,
            "type" : "VEC2"
        },
        {
            "bufferView" : 3,
            "componentType" : 5123,
            "count" : 666,
            "type" : "SCALAR"
        },
        {
            "bufferView" : 4,
            "componentType" : 5126,
            "count" : 877,
            "max" : [
                0.4349200129508972,
                0.8210809826850891,
                1.9016079902648926
            ],
            "min" : [
                -1.200242042541504,
                -0.814079999923706,
                -0.41131600737571716
            ],
            "type" : "VEC3"
        },
        {
            "bufferView" : 5,
            "componentType" : 5126,
            "count" : 877,
            "type" : "VEC3"
        },
        {
            "bufferView" : 6,
            "componentType" : 5126,
            "count" : 877,
            "type" : "VEC2"
        },
        {
            "bufferView" : 7,
            "componentType" : 5123,
            "count" : 4596,
            "type" : "SCALAR"
        },
        {
            "bufferView" : 8,
            "componentType" : 5126,
            "count" : 7501,
            "max" : [
                -0.018154999241232872,
                0.36702001094818115,
                -0.24404899775981903
            ],
            "min" : [
                -0.7568600177764893,
                -0.372979998588562,
                -0.9168670177459717
            ],
            "type" : "VEC3"
        },
        {
            "bufferView" : 9,
            "componentType" : 5126,
            "count" : 7501,
            "type" : "VEC3"
        },
        {
            "bufferView" : 10,
            "componentType" : 5126,
            "count" : 7501,
            "type" : "VEC2"
        },
        {
            "bufferView" : 11,
            "componentType" : 5123,
            "count" : 28074,
            "type" : "SCALAR"
        },
        {
            "bufferView" : 12,
            "componentType" : 5126,
            "count" : 4205,
            "max" : [
                0.04071100056171417,
                0.04002400115132332,
                1.2996560335159302
            ],
            "min" : [
                -0.7906469702720642,
                -0.040716998279094696,
                -0.1626809984445572
            ],
            "type" : "VEC3"
        },
        {
            "bufferView" : 13,
            "componentType" : 5126,
            "count" : 4205,
            "type" : "VEC3"
        },
        {
            "bufferView" : 14,
            "componentType" : 5126,
            "count" : 4205,
            "type" : "VEC2"
        },
        {
            "bufferView" : 15,
            "componentType" : 5123,
            "count" : 15054,
            "type" : "SCALAR"
        }
    ],
    "bufferViews" : [
        {
            "buffer" : 0,
            "byteLength" : 2520,
            "byteOffset" : 0
        },
        {
            "buffer" : 0,
            "byteLength" : 2520,
            "byteOffset" : 2520
        },
        {
            "buffer" : 0,
            "byteLength" : 1680,
            "byteOffset" : 5040
        },
        {
            "buffer" : 0,
            "byteLength" : 1332,
            "byteOffset" : 6720
        },
        {
            "buffer" : 0,
            "byteLength" : 10524,
            "byteOffset" : 8052
        },
        {
            "buffer" : 0,
            "byteLength" : 10524,
            "byteOffset" : 18576
        },
        {
            "buffer" : 0,
            "byteLength" : 7016,
            "byteOffset" : 29100
        },
        {
            "buffer" : 0,
            "byteLength" : 9192,
            "byteOffset" : 36116
        },
        {
            "buffer" : 0,
            "byteLength" : 90012,
            "byteOffset" : 45308
        },
        {
            "buffer" : 0,
            "byteLength" : 90012,
            "byteOffset" : 135320
        },
        {
            "buffer" : 0,
            "byteLength" : 60008,
            "byteOffset" : 225332
        },
        {
            "buffer" : 0,
            "byteLength" : 56148,
            "byteOffset" : 285340
        },
        {
            "buffer" : 0,
            "byteLength" : 50460,
            "byteOffset" : 341488
        },
        {
            "buffer" : 0,
            "byteLength" : 50460,
            "byteOffset" : 391948
        },
        {
            "buffer" : 0,
            "byteLength" : 33640,
            "byteOffset" : 442408
        },
        {
            "buffer" : 0,
            "byteLength" : 30108,
            "byteOffset" : 476048
        }
    ],
    "buffers" : [
        {
            "byteLength" : 506156,
            "uri" : "data:application/octet-stream;base64,"
        }
    ]
}
